<?xml version="1.0" encoding="UTF-8"?>
<svg id="Layer_2" data-name="Layer 2" xmlns="http://www.w3.org/2000/svg" viewBox="0 0 763.45 183.83">
  <defs>
    <style>
      .cls-1 {
        font-family: SourceCodeProRoman-SemiBold, 'Source Code Pro';
        font-size: 122.01px;
        font-variation-settings: 'wght' 600;
        font-weight: 600;
      }

      .cls-1, .cls-2 {
        fill: #fff;
      }

      .cls-3 {
        fill: #f7aa00;
      }

      .cls-3, .cls-4, .cls-2 {
        stroke-width: 0px;
      }

      .cls-4 {
        fill: #f7ab02;
      }
    </style>
  </defs>
  <g id="Layer_1-2" data-name="Layer 1">
    <path class="cls-4" d="m214.15,134.61c.31-2.49,2.29-3.28,3.88-4.23,16.28-9.67,31.85-20.16,44.09-34.94,2.69-3.25,6.3,2.05,6.3,2.05,3.83-1.37.46,2.32-.37,3.26-12.59,14.13-26.99,25.8-44.96,32.51-2.79,1.04-5.63,2.62-8.94,1.35Z"/>
    <path class="cls-3" d="m290.23,149.87c-4.23-.48-4.95-1.99-4.89-5.76.21-13.1-.08-27.86.16-40.97.09-5.05-3.57-3.07-5.78-3.61-3.33-.81-2.28,1.97-2.29,3.43-.08,13.11-.24,27.87.07,40.97.1,4.42-1.38,5.07-5.33,4.6-15.53-1.85-31.17-1.58-46.77-1.78-1.97-.03-4.52-.06-4.63,2.44-.1,2.15,2.12,3.08,4.15,3.49.8.16,1.64.14,2.45.23,15.35,1.74,30.75,2.93,46.18,3.52,3.76.14,4.84,1.32,4.51,4.89-.3,3.25-.02,6.55-.02,9.82,0,2.92,1.41,4.84,4.33,4.87,2.84.03,3.23-2.35,3.29-4.57.09-3.11.43-6.28-.01-9.33-.67-4.61,1.45-4.97,5.22-4.61,4.15.39,8.3.77,12.45,1.16-.22-2.49-.56-4.96-1.07-7.4-4-.47-8-.95-12.01-1.4Z"/>
    <g>
      <path class="cls-2" d="m55.67,94.76l-12,6.51-3.86-8.46c-4,4.93-9.91,8.46-17.58,8.46-14.6,0-22.23-12.09-22.23-30.79,0-20.32,9.02-31.25,23.39-31.25,6.74,0,12,2.51,15.39,7.21v-29.95h12.33v69.16l4.56,9.12Zm-16.88-8.23v-31.86c-3.21-2.6-7.21-4.23-11.39-4.23-9.12,0-14.51,6.98-14.51,20.09s5.02,19.53,14.28,19.53c4.09,0,8.33-1.35,11.63-3.53Z"/>
      <path class="cls-2" d="m116.83,71.6h-40.42c.84,10.37,8.93,17.35,21.72,17.35,6.51,0,13.58-1.35,18.37-3.86l-3.86,12.65c-4,2.19-10.74,3.53-18.46,3.53-18.37,0-30.46-12.42-30.46-31.39s11.53-30.7,29.91-30.7c15.16,0,24.74,8.65,24.74,22.7-.05,3.21-.6,6.98-1.53,9.72Zm-39.67-8.56h29.12c-.56-8.88-4.79-13.12-12.65-13.12-8.6,0-14.56,4.88-16.46,13.12Z"/>
      <path class="cls-2" d="m146.88,99.78l-23.3-59.11h13.58l15.16,41.3,1.72,5.12h.47l1.72-5.12,15.07-41.3h13.35l-23.16,59.11h-14.6Z"/>
      <path class="cls-2" d="m225.02,40.81h26.7l-1.72,9.49h-26.7l-9.35,53.16c-2.6,14.84-12.56,20.42-26.46,20.42-6.37,0-9.35-.93-12.56-1.58l-.23-9.58c3.21.56,6.98.93,12.23.93,8.33,0,13.81-3.3,15.07-10.28l9.35-53.07h-18.6l1.72-9.49h18.6l.93-5.49c2.6-14.74,12.42-20.32,26.23-20.32,6.51,0,9.81.93,12.65,1.58l.23,9.81c-3.21-.79-6.98-1.16-12.23-1.16-8.23,0-13.67,3.3-14.93,10.28l-.93,5.3Z"/>
      <path class="cls-2" d="m306.87,71.6h-40.42c.79,10.37,8.88,17.35,21.67,17.35,6.51,0,13.58-1.35,18.37-3.86l-3.86,12.65c-4,2.19-10.74,3.53-18.46,3.53-18.37,0-30.46-12.42-30.46-31.39s11.53-30.7,29.91-30.7c15.16,0,24.74,8.65,24.74,22.7-.05,3.21-.6,6.98-1.49,9.72Zm-39.72-8.56h29.12c-.56-8.88-4.79-13.12-12.65-13.12-8.6,0-14.56,4.88-16.46,13.12Z"/>
      <path class="cls-2" d="m320.08,96.25l-.79-13.26c5.26,3.67,14.84,6.84,24.88,6.84,7.63,0,13.12-2.42,13.12-7.77,0-11.16-36.74-.79-36.74-23.63,0-10.6,8-19.63,27.07-19.63,11.63,0,20.56,2.84,20.56,9.91,0,2.19-.93,4-1.81,5.72-5.02-2.42-12.88-4.09-19.53-4.09-9.12,0-13.91,3.44-13.91,7.21,0,9.91,37.21,1.26,37.21,23.49,0,12.42-10.98,20.19-27.25,20.19-11.16.05-19.49-3.49-22.79-4.98Z"/>
      <path class="cls-2" d="m433.61,87.22l-2.51,11.53c-2.98,1.26-8.88,2.51-14.37,2.51-14.74,0-20.98-7.63-20.98-18.46v-31.72h-16.79v-10.37h16.79v-16.23h12.33v16.19h23.86v10.37h-23.86v27.95c0,7.63,4,11.07,10.98,11.07,3.95,0,11.26-.88,14.56-2.84Z"/>
    </g>
    <path class="cls-3" d="m420.26,168.45c-12.61-2.23-25.21-4.51-37.86-6.5-4.39-.69-6.45-2.4-5.86-7.08.45-3.56.38-7.19.41-10.79.06-6.9.02-13.81.02-20.71.56-.07,1.13-.15,1.69-.22,5.55,10.58,12.98,19.56,22.46,26.76,9.59,7.28,20.24,12.08,32.31,13.62-1.83-2.72-4.82-3.61-7.45-5-12.74-6.74-24.36-14.83-33.06-26.56-6.18-8.33-10.06-17.57-11.46-27.85-.32-2.34-.98-4.64-3.81-5.07-3.01-.46-3.88,1.78-4.71,4-1.14,3.07-2.29,6.14-3.46,9.2-5.42,14.18-14.61,20.05-28.31,17.93-9.93-1.54-18.1-6.72-25.55-13.02-14.14-11.95-22.39-27.19-24.54-45.57-.38-3.28-2.16-5.07-4.84-6.18-2.92-1.22-4.93.52-6.85,2.5-2.6,2.68-3.55,6.24-5.28,9.38-3.11,5.65-2.76,6.63,3.19,9.42,1.33.62,2.75,1.08,4.16,1.48,1.49.43,2.4,1.07,3.01,2.73,6.13,16.68,16.75,29.82,31.74,39.46,9.93,6.39,20.63,10.18,32.57,9.15,9.33-.81,17.07-5.03,23.47-13.24-.56,10.85-1.21,20.57-1.5,30.29-.11,3.6-2.13,2.86-4.24,2.6-21.42-2.65-42.83-5.38-64.26-7.9.51,2.43.84,4.91,1.07,7.4,21.02,1.97,42.06,3.89,63.1,5.69,3.17.27,4.29,1.42,4.37,4.47.11,4.08.53,8.16.94,12.23.13,1.31.71,2.77,2.27,2.78,1.97,0,1.5-1.78,1.62-2.96.29-2.77.42-5.55.72-8.32.74-6.85.76-6.85,7.48-6.02.81.1,1.62.3,2.43.4,12.81,1.67,25.59,3.71,38.66,3.97-1-2.01-2.92-2.15-4.63-2.45Z"/>
    <text class="cls-1" transform="translate(470.62 101.27)"><tspan x="0" y="0">2023</tspan></text>
  </g>
</svg>