<?xml version="1.0" encoding="UTF-8"?>
<svg id="Layer_2" data-name="Layer 2" xmlns="http://www.w3.org/2000/svg" viewBox="0 0 44.05 37.09">
  <defs>
    <style>
      .cls-1 {
        fill: #f4f4f5;
      }

      .cls-1, .cls-2, .cls-3, .cls-4, .cls-5, .cls-6 {
        stroke-width: 0px;
      }

      .cls-2 {
        fill: #00afa4;
      }

      .cls-3 {
        fill: #01b1a7;
      }

      .cls-4 {
        fill: #547dbf;
      }

      .cls-5 {
        fill: #668bc7;
      }

      .cls-6 {
        fill: #53c1b1;
      }
    </style>
  </defs>
  <g id="Layer_1-2" data-name="Layer 1">
    <g>
      <rect class="cls-5" x="9.59" y="7.04" width="6.83" height="23.14" rx="2.58" ry="2.58"/>
      <rect class="cls-2" x="27.9" y="7.04" width="6.83" height="23.14" rx="2.58" ry="2.58"/>
      <path class="cls-6" d="m28.55,30.19h5.5c.38,0,.68-.31.68-.68v-1.25c0-.14-.04-.27-.12-.39l-9.35-13.6c-.13-.19-.34-.3-.56-.3h-5.08c-.23,0-.44.11-.57.3l-.47.71c-.15.23-.15.53,0,.75l9.39,14.14c.13.19.34.3.57.3Z"/>
      <path class="cls-4" d="m15.77,30.19h-5.5c-.38,0-.68-.31-.68-.68v-1.25c0-.14.04-.27.12-.39l9.35-13.6c.13-.19.34-.3.56-.3h5.08c.23,0,.44.11.57.3l.47.71c.15.23.15.53,0,.75l-9.39,14.14c-.13.19-.34.3-.57.3Z"/>
      <g>
        <path class="cls-1" d="m39.18,27.12v-.68c-2.13-1.23-4.67-3.89-5.42-6.25h-.03s0-.02,0-.02h-2.12v.02h-.02c-1.32,4.13-5.2,6.31-9.65,6.31s-8.33-2.18-9.65-6.31l-.04.02v-.04h-2.11v.09c-.77,2.33-3.1,4.85-5.21,6.06v.68c.38-.2,1.45-1.04,1.8-1.29v3.2h-1.69v.91h5.57v4.75h1.64v-4.75h19.37v4.75h1.67v-4.75h5.83v-.91h-1.9v-3.2c.35.24,1.6,1.2,1.98,1.4Zm-30.51,1.8h-1.65v-3.39c.61-.46,1.15-1,1.65-1.58v4.96Zm1.94,0h-1.64v-5.32c.45-.56,1.32-1.15,1.64-1.8v7.12Zm2.93,0h-1.29v-7.24c.35.73.79,1.37,1.29,1.95v5.29Zm2.34,0h-2.05v-4.94c.6.64,1.3,1.16,2.05,1.6v3.33Zm2.35,0h-2.05v-3.15c.64.34,1.33.6,2.05.81v2.34Zm2.34,0h-2.05v-2.25c.66.17,1.34.3,2.05.37v1.88Zm2.35,0h-2.05v-1.87c.35.03.71.06,1.07.06.33,0,.65-.03.98-.05v1.86Zm2.34,0h-2.05v-1.88c.71-.06,1.39-.18,2.05-.35v2.22Zm2.34,0h-2.05v-2.31c.72-.2,1.41-.46,2.05-.79v3.1Zm2.34,0h-2.05v-3.27c.75-.43,1.45-.93,2.05-1.55v4.82Zm1.67,0h-1.37v-5.16c.53-.6,1-1.27,1.37-2.04v7.21Zm3.35,0h-1.69v-7.24c.33.7,1.22,1.33,1.69,1.93v5.31Zm1.94,0h-1.65v-4.96c.5.58,1.04,1.11,1.65,1.57v3.39Z"/>
        <rect class="cls-1" x="10.61" y="34.52" width="1.64" height="1.87"/>
        <rect class="cls-1" x="31.62" y="34.52" width="1.67" height="1.87"/>
        <rect class="cls-1" x="10.16" y="35.36" width="2.83" height="1.73"/>
        <rect class="cls-1" x="30.84" y="35.36" width="2.83" height="1.73"/>
      </g>
      <g>
        <rect class="cls-5" x="0" y="0" width="5.04" height="37.09" rx="1.9" ry="1.9"/>
        <rect class="cls-5" x="0" y="0" width="11.75" height="4.82" rx="1.82" ry="1.82"/>
        <rect class="cls-5" x="0" y="32.27" width="11.75" height="4.82" rx="1.82" ry="1.82"/>
        <rect class="cls-3" x="39.01" y="0" width="5.04" height="37.09" rx="1.9" ry="1.9" transform="translate(83.06 37.09) rotate(-180)"/>
        <rect class="cls-3" x="32.3" y="0" width="11.75" height="4.82" rx="1.82" ry="1.82" transform="translate(76.35 4.82) rotate(-180)"/>
        <rect class="cls-3" x="32.3" y="32.27" width="11.75" height="4.82" rx="1.82" ry="1.82" transform="translate(76.35 69.37) rotate(180)"/>
      </g>
    </g>
  </g>
</svg>